<svg width="12" height="12" viewBox="0 0 12 12" fill="none" xmlns="http://www.w3.org/2000/svg">
<path d="M1.5 1H5.5V2H2V10H10V6.5H11V10.5C11 10.7761 10.7761 11 10.5 11H1.5C1.22386 11 1 10.7761 1 10.5V1.5C1 1.22386 1.22386 1 1.5 1Z" fill="#6D6D6D"/>
<path d="M11 5V1.5C11 1.22386 10.7761 1 10.5 1H7V2H10V5H11Z" fill="#6D6D6D"/>
<path fill-rule="evenodd" clip-rule="evenodd" d="M10.5178 1C10.7939 1 11.0178 1.22386 11.0178 1.5V5H10.0178V2.707L7.03033 5.69454C6.9327 5.79217 6.77441 5.79217 6.67678 5.69454L6.32322 5.34099C6.22559 5.24336 6.22559 5.08507 6.32322 4.98744L9.31052 1.99975L7.01777 2V1L10.5178 1Z" fill="#6D6D6D"/>
</svg>
