<svg width="16" height="16" viewBox="0 0 16 16" fill="none" xmlns="http://www.w3.org/2000/svg">
<path d="M7.99963 0.727295C8.53889 0.727295 9.07163 0.786487 9.58948 0.903076L9.88831 0.970459L10.8199 3.09546L13.1149 2.84448L13.3219 3.07007C14.048 3.86097 14.5923 4.8045 14.9117 5.83472L15.0026 6.12476L14.8229 6.37085L13.6373 7.99976L15.0026 9.87476L14.9117 10.1658C14.5924 11.1957 14.0478 12.1387 13.3219 12.9294L13.1149 13.156L10.8199 12.905L9.88831 15.0291L9.58948 15.0964C9.07163 15.213 8.53889 15.2732 7.99963 15.2732C7.46044 15.2732 6.92856 15.213 6.41077 15.0964L6.11194 15.0291L5.98889 14.7488L5.1803 12.905L2.88538 13.156L2.67834 12.9294C1.95218 12.1384 1.40689 11.1951 1.08752 10.1648L0.997681 9.87476L1.17639 9.62866L2.36292 7.99976L0.997681 6.12573L1.08752 5.83472C1.40693 4.80442 1.95217 3.86103 2.67834 3.07007L2.88538 2.84448L5.1803 3.09546L6.11194 0.970459L6.41077 0.903076C6.92852 0.786501 7.46048 0.727323 7.99963 0.727295ZM7.99963 1.93921C7.65231 1.93923 7.30904 1.96895 6.97229 2.0271L6.22522 3.73022C6.05108 4.12686 5.63927 4.36421 5.20862 4.31714L3.37268 4.11694C2.92927 4.65068 2.5801 5.25734 2.34143 5.91089L3.43713 7.41577C3.69061 7.7638 3.69055 8.23562 3.43713 8.58374L2.34143 10.0886C2.58013 10.7423 2.92916 11.3497 3.37268 11.8835L5.20862 11.6824C5.63936 11.6353 6.05112 11.8734 6.22522 12.2703L6.97229 13.9724C7.30907 14.0306 7.65227 14.0603 7.99963 14.0603C8.34713 14.0603 8.69104 14.0316 9.02795 13.9734L9.77502 12.2703C9.94904 11.8736 10.36 11.6355 10.7906 11.6824L12.6276 11.8835C13.071 11.3499 13.4201 10.7431 13.6588 10.0896L12.5631 8.58374C12.3096 8.23565 12.3096 7.76384 12.5631 7.41577L13.6588 5.91089C13.4202 5.2574 13.0709 4.65064 12.6276 4.11694L10.7906 4.31714C10.3602 4.36404 9.94915 4.12671 9.77502 3.73022L9.02795 2.0271C8.69104 1.96892 8.34713 1.93921 7.99963 1.93921ZM7.99963 4.96948C9.66741 4.96948 11.019 6.32693 11.0192 7.99976C11.0192 9.6727 9.6675 11.03 7.99963 11.03C6.33195 11.0298 4.98108 9.67257 4.98108 7.99976C4.98122 6.32706 6.33203 4.96969 7.99963 4.96948ZM7.99963 6.1814C7.00277 6.1816 6.19314 6.99521 6.19299 7.99976C6.19299 9.00443 7.00268 9.81791 7.99963 9.81812C8.99676 9.81812 9.80627 9.00456 9.80627 7.99976C9.80613 6.99508 8.99668 6.1814 7.99963 6.1814Z" fill="#6D6D6D"/>
</svg>
